<svg width="90" height="71" viewBox="0 0 90 71" fill="none" xmlns="http://www.w3.org/2000/svg">
<path fill-rule="evenodd" clip-rule="evenodd" d="M24.425 51.1998C25.9039 50.8663 27.3732 51.7948 27.7068 53.2737C28.5959 57.2159 33.0217 65.2011 43.6133 65.2011C54.1635 65.2011 58.2923 57.2719 59.0492 53.3566C59.3369 51.8681 60.7769 50.8947 62.2654 51.1824C63.7539 51.4702 64.7273 52.9101 64.4396 54.3986C63.3833 59.8624 57.7214 70.6912 43.6133 70.6912C29.5466 70.6912 23.5773 59.9184 22.3511 54.4816C22.0176 53.0027 22.9461 51.5334 24.425 51.1998Z" fill="#1E0E84"/>
<path d="M74.8106 41.7673C66.5812 41.7673 59.93 35.2288 59.93 26.9994C59.93 18.8827 66.5812 12.2878 74.8106 12.2878C83.0965 12.2878 89.804 18.939 89.804 26.9994C89.804 35.1725 83.0965 41.7673 74.8106 41.7673ZM74.8106 36.6944C79.94 36.6944 83.9983 32.4105 83.9983 27.0558C83.9983 21.701 79.94 17.3608 74.8106 17.3608C69.7941 17.3608 65.6793 21.701 65.6793 27.0558C65.6793 32.4105 69.7941 36.6944 74.8106 36.6944Z" fill="#1E0E84"/>
<path fill-rule="evenodd" clip-rule="evenodd" d="M34.0169 5.81627C34.6546 6.44294 35.4518 6.75627 36.4085 6.75627C37.405 6.75627 38.2221 6.44294 38.8599 5.81627C39.4976 5.15043 39.8165 4.32793 39.8165 3.34876C39.8165 2.40876 39.4976 1.62542 38.8599 0.998754C38.2221 0.332918 37.405 0 36.4085 0C35.4518 0 34.6546 0.332918 34.0169 0.998754C33.3791 1.62542 33.0602 2.40876 33.0602 3.34876C33.0602 4.32793 33.3791 5.15043 34.0169 5.81627ZM39.0463 14.4768C39.0463 13.4965 38.2516 12.7018 37.2713 12.7018H35.0207C34.0404 12.7018 33.2457 13.4965 33.2457 14.4768L33.2457 40.276C33.2457 41.2563 34.0404 42.051 35.0207 42.051H37.2713C38.2516 42.051 39.0463 41.2563 39.0463 40.276L39.0463 14.4768ZM49.926 12.7018C48.9457 12.7018 48.151 13.4965 48.151 14.4768V44.5319C48.151 46.0237 47.7078 47.1345 46.8187 47.8614C45.9323 48.6289 44.881 49.01 43.673 49.01C42.746 49.01 41.9596 48.8478 41.3137 48.5262C41.057 48.4055 40.8089 48.258 40.569 48.0848C40.2047 47.8216 39.7801 47.6398 39.3306 47.6398H35.8915C34.7301 47.6398 33.8719 48.7562 34.4585 49.7585C34.4974 49.825 34.5373 49.8908 34.5781 49.9559C35.4645 51.3666 36.9897 52.4368 38.4436 53.1637C39.8949 53.9313 41.4704 54.315 43.1622 54.315C45.0188 54.315 46.5701 54.0123 47.8213 53.407C47.9511 53.3475 48.0754 53.2827 48.2024 53.2151C48.3889 53.1313 48.5753 53.0394 48.7564 52.9448C50.2076 52.2179 51.7328 51.1504 52.622 49.737C53.5111 48.3236 53.9543 46.5696 53.9543 44.4725V14.4768C53.9543 13.4965 53.1596 12.7018 52.1793 12.7018H49.926ZM50.7317 6.75627C49.7751 6.75627 48.9779 6.44294 48.3401 5.81627C47.7024 5.15043 47.3835 4.32793 47.3835 3.34876C47.3835 2.40876 47.7024 1.62542 48.3401 0.998754C48.9779 0.332918 49.7751 0 50.7317 0C51.7282 0 52.5454 0.332918 53.1831 0.998754C53.8209 1.62542 54.1397 2.40876 54.1397 3.34876C54.1397 4.32793 53.8209 5.15043 53.1831 5.81627C52.5454 6.44294 51.7282 6.75627 50.7317 6.75627Z" fill="#1E0E84"/>
<path d="M12.7099 41.1471C11.5262 41.1471 10.7371 40.5835 10.2862 39.5125L0.873034 15.2187C0.365739 13.8096 0.9294 12.9077 2.45128 12.9077H4.31137C5.49505 12.9077 6.22781 13.415 6.67874 14.5423L14.1754 34.7778L21.6721 14.5423C22.1231 13.415 22.8558 12.9077 24.0395 12.9077H25.8996C27.4215 12.9077 27.9851 13.8096 27.4778 15.2187L18.0647 39.5125C17.6138 40.5835 16.8246 41.1471 15.641 41.1471H12.7099Z" fill="#1E0E84"/>
</svg>
